<svg width="126" height="43" viewBox="0 0 126 43" fill="none" xmlns="http://www.w3.org/2000/svg">
<path d="M126 27.7114C126 28.8356 125.838 29.834 125.512 30.7067C125.187 31.5794 124.743 32.3412 124.181 32.992C123.619 33.628 122.953 34.1679 122.184 34.6116C121.415 35.0406 120.587 35.3882 119.699 35.6544C118.827 35.9207 117.909 36.113 116.948 36.2313C115.987 36.3496 115.033 36.4088 114.086 36.4088C112.814 36.4088 111.69 36.3274 110.713 36.1647C109.737 36.002 108.805 35.7432 107.918 35.3882C107.03 35.0184 106.143 34.5451 105.255 33.9682C104.383 33.3913 103.406 32.6888 102.327 31.8604L106.698 28.2883C107.097 29.0427 107.622 29.7305 108.273 30.3517C108.938 30.9582 109.626 31.4832 110.336 31.927C111.046 32.3707 111.734 32.7109 112.4 32.9476C113.065 33.1843 113.605 33.3026 114.019 33.3026C114.36 33.3026 114.744 33.2952 115.173 33.2804C115.602 33.2508 116.038 33.2064 116.482 33.1473C116.926 33.0733 117.362 32.9698 117.791 32.8367C118.22 32.7035 118.597 32.526 118.923 32.3042C119.263 32.0675 119.529 31.7791 119.721 31.4389C119.928 31.0839 120.032 30.6623 120.032 30.1742C120.032 29.6713 119.899 29.235 119.633 28.8652C119.381 28.4806 119.048 28.1478 118.634 27.8667C118.22 27.5857 117.747 27.3491 117.214 27.1568C116.682 26.9645 116.142 26.7944 115.595 26.6465C115.062 26.4985 114.544 26.3728 114.042 26.2693C113.539 26.1509 113.102 26.04 112.732 25.9365C112.052 25.7442 111.335 25.5519 110.58 25.3596C109.826 25.1525 109.079 24.9233 108.339 24.6718C107.6 24.4056 106.89 24.0949 106.209 23.7399C105.544 23.385 104.952 22.9634 104.434 22.4753C103.932 21.9724 103.525 21.3881 103.214 20.7225C102.918 20.0421 102.77 19.2508 102.77 18.3485C102.77 16.6918 103.096 15.3088 103.747 14.1995C104.412 13.0753 105.285 12.1805 106.365 11.5148C107.445 10.8344 108.672 10.3537 110.048 10.0727C111.423 9.79164 112.821 9.65112 114.241 9.65112C115.217 9.65112 116.245 9.75466 117.325 9.96174C118.405 10.154 119.455 10.4499 120.476 10.8492C121.496 11.2338 122.45 11.7071 123.338 12.2692C124.225 12.8313 124.965 13.4747 125.557 14.1995L121.186 17.7938C120.86 16.9063 120.431 16.1446 119.899 15.5085C119.381 14.8725 118.812 14.3548 118.19 13.9554C117.584 13.5413 116.955 13.238 116.305 13.0458C115.669 12.8535 115.077 12.7573 114.53 12.7573C113.997 12.7573 113.398 12.7795 112.732 12.8239C112.067 12.8683 111.438 12.994 110.847 13.2011C110.27 13.4081 109.774 13.7262 109.36 14.1551C108.961 14.5693 108.761 15.1461 108.761 15.8857C108.761 16.4182 108.879 16.8767 109.116 17.2613C109.367 17.6311 109.693 17.9565 110.092 18.2375C110.492 18.5038 110.943 18.7331 111.446 18.9253C111.963 19.1028 112.488 19.2655 113.021 19.4135C113.553 19.5466 114.071 19.6649 114.574 19.7685C115.077 19.872 115.528 19.9829 115.927 20.1013C116.608 20.2935 117.325 20.4932 118.08 20.7003C118.849 20.8926 119.603 21.1219 120.343 21.3881C121.082 21.6396 121.792 21.9428 122.473 22.2978C123.168 22.638 123.774 23.0595 124.292 23.5624C124.81 24.0654 125.224 24.657 125.534 25.3374C125.845 26.003 126 26.7944 126 27.7114Z" fill="#F2F2F2"/>
<path d="M97.978 4.08243C97.978 4.6445 97.8671 5.17699 97.6452 5.6799C97.4381 6.18281 97.1497 6.61916 96.7799 6.98894C96.4101 7.35873 95.9738 7.65456 95.4709 7.87643C94.9679 8.08351 94.4355 8.18705 93.8734 8.18705C93.3113 8.18705 92.7788 8.08351 92.2759 7.87643C91.7878 7.65456 91.3588 7.35873 90.9891 6.98894C90.6193 6.61916 90.3234 6.18281 90.1016 5.6799C89.8945 5.17699 89.791 4.6445 89.791 4.08243C89.791 3.52036 89.8945 2.99526 90.1016 2.50714C90.3234 2.00424 90.6193 1.56789 90.9891 1.1981C91.3588 0.828319 91.7878 0.539887 92.2759 0.332807C92.7788 0.110936 93.3113 0 93.8734 0C94.4355 0 94.9679 0.110936 95.4709 0.332807C95.9738 0.539887 96.4101 0.828319 96.7799 1.1981C97.1497 1.56789 97.4381 2.00424 97.6452 2.50714C97.8671 2.99526 97.978 3.52036 97.978 4.08243ZM97.6452 35.8988H90.1238V10.2948H97.6452V35.8988Z" fill="#F2F2F2"/>
<path d="M86.951 12.5354L82.7354 19.5244C82.5579 18.9327 82.3287 18.2671 82.0476 17.5276C81.7666 16.788 81.419 16.1002 81.0048 15.4641C80.5907 14.8133 80.0952 14.2734 79.5183 13.8445C78.9414 13.4007 78.2758 13.1789 77.5215 13.1789C76.8263 13.1789 76.2198 13.3564 75.7021 13.7114C75.1992 14.0664 74.7703 14.5323 74.4153 15.1092C74.0603 15.6712 73.7644 16.3147 73.5278 17.0394C73.3059 17.7494 73.1284 18.4742 72.9953 19.2138C72.877 19.9386 72.7956 20.6411 72.7512 21.3215C72.7069 21.9872 72.6847 22.564 72.6847 23.0521V35.8985H65.1632V10.2724H68.0476L71.0872 16.2407C71.5014 15.2793 71.9747 14.3992 72.5072 13.6004C73.0397 12.7869 73.6535 12.0917 74.3487 11.5148C75.0439 10.9232 75.8278 10.4647 76.7005 10.1392C77.588 9.81383 78.5864 9.65112 79.6958 9.65112C80.2727 9.65112 80.9161 9.70289 81.6261 9.80643C82.3361 9.89518 83.0313 10.0579 83.7117 10.2945C84.3921 10.5164 85.0207 10.8122 85.5976 11.182C86.1744 11.5518 86.6256 12.003 86.951 12.5354Z" fill="#F2F2F2"/>
<path d="M41.9998 23.7399C42.9169 23.947 43.834 24.1097 44.751 24.2281C45.6681 24.3464 46.5926 24.4056 47.5244 24.4056C48.5007 24.4056 49.4029 24.3168 50.2313 24.1393C51.0744 23.947 51.7992 23.6364 52.4056 23.2075C53.0268 22.7637 53.515 22.1795 53.87 21.4547C54.2249 20.7299 54.4024 19.8276 54.4024 18.7478C54.4024 17.8751 54.2841 17.0764 54.0475 16.3516C53.8108 15.6269 53.4558 15.0056 52.9825 14.4879C52.5239 13.9702 51.9545 13.5708 51.2741 13.2898C50.5937 12.994 49.8023 12.8461 48.9 12.8461C48.0569 12.8461 47.2952 13.0014 46.6148 13.312C45.9492 13.6226 45.3575 14.0442 44.8398 14.5767C44.3369 15.0944 43.9005 15.7008 43.5308 16.396C43.1758 17.0912 42.8799 17.816 42.6433 18.5703C42.4066 19.3247 42.2365 20.0865 42.133 20.8556C42.0294 21.6248 41.9777 22.3496 41.9777 23.03C41.9777 23.1483 41.9777 23.2666 41.9777 23.385C41.9777 23.5033 41.9851 23.6216 41.9998 23.7399ZM60.4817 18.6813C60.4817 19.7315 60.3116 20.6707 59.9714 21.499C59.6312 22.3126 59.1653 23.03 58.5736 23.6512C57.9968 24.2724 57.3237 24.7975 56.5546 25.2265C55.7854 25.6554 54.9645 26.0104 54.0918 26.2915C53.2191 26.5577 52.3169 26.75 51.385 26.8683C50.4679 26.9867 49.573 27.0458 48.7004 27.0458C47.591 27.0458 46.4964 26.9719 45.4167 26.824C44.3369 26.6612 43.2719 26.4098 42.2217 26.0696C42.3844 27.0458 42.6433 27.9777 42.9983 28.8652C43.3533 29.7379 43.8266 30.507 44.4182 31.1726C45.0099 31.8235 45.7347 32.3412 46.5926 32.7257C47.4653 33.1103 48.4933 33.3026 49.6766 33.3026C50.4605 33.3026 51.2075 33.1843 51.9175 32.9476C52.6275 32.7109 53.2783 32.3781 53.87 31.9492C54.4616 31.5202 54.9793 31.0099 55.4231 30.4183C55.8816 29.8266 56.2514 29.1684 56.5324 28.4436L59.7717 29.6417C59.2836 30.8102 58.6106 31.8235 57.7527 32.6814C56.9096 33.5245 55.9481 34.2271 54.8684 34.7891C53.8034 35.3364 52.6645 35.7432 51.4516 36.0094C50.2535 36.2757 49.0627 36.4088 47.8794 36.4088C45.927 36.4088 44.1224 36.0834 42.4658 35.4326C40.8091 34.7669 39.3818 33.8425 38.1837 32.6592C36.9856 31.4759 36.0463 30.0633 35.3659 28.4214C34.6855 26.7796 34.3453 24.9824 34.3453 23.03C34.3453 21.0775 34.6855 19.2803 35.3659 17.6385C36.0463 15.9966 36.9856 14.5841 38.1837 13.4007C39.3818 12.2174 40.8091 11.3004 42.4658 10.6495C44.1224 9.98393 45.927 9.65112 47.8794 9.65112C48.8261 9.65112 49.7949 9.71768 50.7859 9.85081C51.777 9.98393 52.7384 10.1984 53.6703 10.4942C54.6021 10.7753 55.4822 11.1451 56.3105 11.6036C57.1389 12.0621 57.8562 12.6316 58.4627 13.312C59.0839 13.9776 59.572 14.7542 59.927 15.6416C60.2968 16.5291 60.4817 17.5423 60.4817 18.6813Z" fill="#F2F2F2"/>
<path d="M30.7954 20.612V21.0336C30.7658 22.2761 30.6327 23.5629 30.396 24.8942C30.1741 26.2254 29.8561 27.5566 29.442 28.8878C29.0278 30.2191 28.5323 31.5355 27.9554 32.8372C27.3786 34.1388 26.7277 35.3813 26.003 36.5646C25.293 37.7627 24.5238 38.8794 23.6955 39.9148C22.8672 40.965 21.9945 41.8895 21.0774 42.6882L17.7715 40.7801C18.2892 39.9074 18.7552 38.9534 19.1693 37.918C19.5983 36.8974 19.9829 35.825 20.3231 34.7009C20.6633 33.5767 20.9517 32.423 21.1884 31.2397C21.4398 30.0564 21.6469 28.8804 21.8096 27.7119C21.9723 26.5434 22.0906 25.3971 22.1646 24.2729C22.2533 23.134 22.2977 22.0542 22.2977 21.0336C22.2977 20.2349 22.2903 19.3326 22.2755 18.3268C22.2755 17.3062 22.2164 16.2708 22.098 15.2206C21.9945 14.1704 21.817 13.1498 21.5655 12.1588C21.3141 11.1529 20.9369 10.2581 20.434 9.47411C19.9459 8.69017 19.3098 8.06153 18.5259 7.58821C17.7568 7.11488 16.7953 6.87822 15.6416 6.87822C14.621 6.87822 13.7409 7.05572 13.0013 7.41071C12.2765 7.75091 11.6553 8.21684 11.1376 8.8085C10.6347 9.38536 10.2279 10.0584 9.9173 10.8275C9.62147 11.5967 9.38481 12.4102 9.20731 13.2681C9.04461 14.1112 8.93367 14.9691 8.87451 15.8418C8.83013 16.6997 8.80794 17.5132 8.80794 18.2824V24.4726H18.3706V28.1335H8.80794V35.899H-0.000343323V19.658C-0.000343323 17.3357 0.369442 15.1762 1.10901 13.1794C1.84858 11.1825 2.89138 9.45193 4.2374 7.98758C5.59821 6.50843 7.22526 5.3547 9.11856 4.52638C11.0267 3.68327 13.1492 3.26172 15.4863 3.26172C17.0689 3.26172 18.5481 3.49099 19.9237 3.94952C21.3141 4.39326 22.5788 5.0145 23.7177 5.81324C24.8566 6.59718 25.8698 7.53644 26.7573 8.631C27.6596 9.71078 28.4066 10.8941 28.9982 12.1809C29.6047 13.4678 30.0632 14.8286 30.3738 16.2634C30.6844 17.6981 30.825 19.1477 30.7954 20.612Z" fill="#F2F2F2"/>
</svg>
