<svg width="57" height="57" viewBox="0 0 57 57" fill="none" xmlns="http://www.w3.org/2000/svg">
<circle cx="28.5" cy="28.5" r="28.5" fill="#AC4A00"/>
<path d="M43.7957 26.3503V26.7719C43.7661 28.0144 43.633 29.3012 43.3964 30.6324C43.1745 31.9637 42.8565 33.2949 42.4423 34.6261C42.0282 35.9574 41.5326 37.2738 40.9558 38.5754C40.3789 39.8771 39.7281 41.1196 39.0033 42.3029C38.2933 43.501 37.5242 44.6177 36.6958 45.6531C35.8675 46.7033 34.9948 47.6278 34.0778 48.4265L30.7719 46.5184C31.2896 45.6457 31.7555 44.6917 32.1697 43.6563C32.5986 42.6357 32.9832 41.5633 33.3234 40.4392C33.6636 39.315 33.952 38.1613 34.1887 36.978C34.4402 35.7946 34.6472 34.6187 34.8099 33.4502C34.9726 32.2817 35.091 31.1354 35.1649 30.0112C35.2537 28.8723 35.2981 27.7925 35.2981 26.7719C35.2981 25.9731 35.2907 25.0709 35.2759 24.0651C35.2759 23.0444 35.2167 22.009 35.0984 20.9589C34.9948 19.9087 34.8173 18.8881 34.5659 17.897C34.3144 16.8912 33.9372 15.9963 33.4343 15.2124C32.9462 14.4284 32.3102 13.7998 31.5262 13.3265C30.7571 12.8532 29.7957 12.6165 28.6419 12.6165C27.6213 12.6165 26.7412 12.794 26.0017 13.149C25.2769 13.4892 24.6556 13.9551 24.1379 14.5468C23.635 15.1236 23.2283 15.7967 22.9176 16.5658C22.6218 17.335 22.3852 18.1485 22.2077 19.0064C22.0449 19.8495 21.934 20.7074 21.8748 21.5801C21.8305 22.438 21.8083 23.2515 21.8083 24.0207V30.2109H31.3709V33.8718H21.8083V41.6373H13V25.3963C13 23.074 13.3698 20.9145 14.1094 18.9176C14.8489 16.9208 15.8917 15.1902 17.2377 13.7259C18.5986 12.2467 20.2256 11.093 22.1189 10.2647C24.027 9.42156 26.1496 9 28.4866 9C30.0693 9 31.5484 9.22927 32.924 9.6878C34.3144 10.1315 35.5791 10.7528 36.718 11.5515C37.857 12.3355 38.8702 13.2747 39.7577 14.3693C40.6599 15.4491 41.4069 16.6324 41.9986 17.9192C42.605 19.2061 43.0635 20.5669 43.3742 22.0017C43.6848 23.4364 43.8253 24.886 43.7957 26.3503Z" fill="#F2F2F2"/>
</svg>
