<svg width="372" height="178" viewBox="0 0 372 178" fill="none" xmlns="http://www.w3.org/2000/svg">
<path d="M14.6258 139.525C15.9674 139.525 17.1552 139.692 18.1893 140.028C19.2234 140.335 20.0898 140.852 20.7885 141.579C21.5152 142.305 22.0602 143.284 22.4235 144.513C22.7868 145.715 22.9685 147.21 22.9685 148.999C22.9685 150.732 22.7868 152.213 22.4235 153.443C22.0881 154.673 21.5711 155.665 20.8724 156.419C20.2016 157.174 19.3352 157.733 18.2731 158.096C17.239 158.432 16.0233 158.599 14.6258 158.599H7.12165V168.871H4.73204V139.525H14.6258ZM7.12165 156.294H14.8355C15.646 156.294 16.3866 156.21 17.0574 156.042C17.7561 155.874 18.371 155.553 18.902 155.078C19.433 154.575 19.8383 153.834 20.1177 152.856C20.4252 151.878 20.5789 150.592 20.5789 148.999C20.5789 147.518 20.4252 146.302 20.1177 145.352C19.8383 144.402 19.433 143.675 18.902 143.172C18.3989 142.641 17.798 142.278 17.0993 142.082C16.4006 141.858 15.646 141.746 14.8355 141.746H7.12165V156.294Z" fill="#F2F2F2"/>
<path d="M26.3076 168.871V139.525H28.6553V168.871H26.3076Z" fill="#F2F2F2"/>
<path d="M45.8171 154.198C45.8171 153.163 45.6355 152.325 45.2721 151.682C44.9367 151.039 44.4616 150.55 43.8467 150.215C43.2598 149.88 42.5751 149.656 41.7925 149.544C41.01 149.404 40.1995 149.335 39.361 149.335L39.4448 147.532C41.1497 147.532 42.5611 147.7 43.6791 148.035C44.797 148.342 45.6774 148.859 46.3202 149.586C46.991 150.285 47.4661 151.235 47.7456 152.437C48.0251 153.611 48.1648 155.064 48.1648 156.797V168.871C48.1927 168.871 48.039 168.885 47.7036 168.912C47.3962 168.94 46.977 168.968 46.446 168.996C45.9429 169.052 45.3839 169.094 44.769 169.122C44.1821 169.178 43.5952 169.22 43.0083 169.248C42.4493 169.276 41.9602 169.29 41.541 169.29C40.1995 169.318 38.9418 169.234 37.7679 169.038C36.622 168.843 35.6159 168.479 34.7495 167.948C33.911 167.389 33.2403 166.607 32.7372 165.601C32.2621 164.594 32.0245 163.323 32.0245 161.786V158.306C32.0245 157.132 32.1922 156.14 32.5276 155.329C32.8909 154.519 33.38 153.876 33.9949 153.401C34.6097 152.898 35.2945 152.535 36.0491 152.311C36.8316 152.087 37.6422 151.976 38.4806 151.976C39.4029 151.976 40.2973 152.087 41.1637 152.311C42.0301 152.507 42.8546 152.772 43.6371 153.108C44.4476 153.443 45.1743 153.806 45.8171 154.198ZM45.8171 156.168C45.0905 155.777 44.3079 155.413 43.4694 155.078C42.631 154.743 41.7785 154.477 40.9121 154.281C40.0457 154.086 39.1654 153.988 38.271 153.988C37.9077 153.988 37.5024 154.044 37.0552 154.156C36.6081 154.267 36.1749 154.477 35.7556 154.784C35.3364 155.064 34.987 155.497 34.7076 156.084C34.456 156.671 34.3302 157.44 34.3302 158.39V161.492C34.3302 162.498 34.4281 163.379 34.6237 164.133C34.8473 164.888 35.2106 165.517 35.7137 166.02C36.2447 166.495 36.9714 166.844 37.8937 167.068C38.816 167.264 39.9759 167.333 41.3733 167.278C41.9323 167.25 42.4353 167.222 42.8825 167.194C43.3576 167.166 43.7769 167.138 44.1402 167.11C44.5035 167.054 44.811 167.026 45.0625 167.026C45.314 166.998 45.4957 166.984 45.6075 166.984C45.7472 166.956 45.8171 166.942 45.8171 166.942V156.168Z" fill="#F2F2F2"/>
<path d="M54.0363 163.337C54.0363 164.063 54.1341 164.72 54.3298 165.307C54.5533 165.866 54.8608 166.341 55.2521 166.733C55.6713 167.096 56.1883 167.389 56.8032 167.613L56.0905 169.416C54.5533 168.94 53.4354 168.214 52.7367 167.236C52.038 166.257 51.6886 164.958 51.6886 163.337V139.525H54.0363V147.909H59.109L58.1028 150.089H54.0363V163.337Z" fill="#F2F2F2"/>
<path d="M72.5511 154.198C72.5511 153.163 72.3695 152.325 72.0061 151.682C71.6708 151.039 71.1956 150.55 70.5808 150.215C69.9938 149.88 69.3091 149.656 68.5265 149.544C67.744 149.404 66.9335 149.335 66.095 149.335L66.1789 147.532C67.8837 147.532 69.2951 147.7 70.4131 148.035C71.531 148.342 72.4114 148.859 73.0542 149.586C73.725 150.285 74.2001 151.235 74.4796 152.437C74.7591 153.611 74.8988 155.064 74.8988 156.797V168.871C74.9268 168.871 74.773 168.885 74.4377 168.912C74.1302 168.94 73.711 168.968 73.18 168.996C72.6769 169.052 72.1179 169.094 71.5031 169.122C70.9161 169.178 70.3292 169.22 69.7423 169.248C69.1833 169.276 68.6942 169.29 68.275 169.29C66.9335 169.318 65.6758 169.234 64.5019 169.038C63.3561 168.843 62.3499 168.479 61.4835 167.948C60.645 167.389 59.9743 166.607 59.4712 165.601C58.9961 164.594 58.7585 163.323 58.7585 161.786V158.306C58.7585 157.132 58.9262 156.14 59.2616 155.329C59.6249 154.519 60.114 153.876 60.7289 153.401C61.3438 152.898 62.0285 152.535 62.7831 152.311C63.5657 152.087 64.3762 151.976 65.2146 151.976C66.1369 151.976 67.0313 152.087 67.8977 152.311C68.7641 152.507 69.5886 152.772 70.3711 153.108C71.1817 153.443 71.9083 153.806 72.5511 154.198ZM72.5511 156.168C71.8245 155.777 71.0419 155.413 70.2035 155.078C69.365 154.743 68.5126 154.477 67.6462 154.281C66.7798 154.086 65.8994 153.988 65.005 153.988C64.6417 153.988 64.2364 154.044 63.7893 154.156C63.3421 154.267 62.9089 154.477 62.4896 154.784C62.0704 155.064 61.7211 155.497 61.4416 156.084C61.19 156.671 61.0643 157.44 61.0643 158.39V161.492C61.0643 162.498 61.1621 163.379 61.3577 164.133C61.5813 164.888 61.9447 165.517 62.4477 166.02C62.9787 166.495 63.7054 166.844 64.6277 167.068C65.55 167.264 66.7099 167.333 68.1073 167.278C68.6663 167.25 69.1694 167.222 69.6165 167.194C70.0917 167.166 70.5109 167.138 70.8742 167.11C71.2375 167.054 71.545 167.026 71.7965 167.026C72.0481 166.998 72.2297 166.984 72.3415 166.984C72.4813 166.956 72.5511 166.942 72.5511 166.942V156.168Z" fill="#F2F2F2"/>
<path d="M85.7601 141.285C85.5645 141.229 85.3688 141.201 85.1732 141.201C85.0055 141.201 84.8378 141.201 84.6701 141.201C84.0273 141.201 83.4544 141.299 82.9513 141.495C82.4762 141.691 82.0709 141.984 81.7355 142.375C81.4281 142.739 81.1905 143.214 81.0228 143.801C80.8551 144.388 80.7713 145.058 80.7713 145.813V147.909H85.5505L84.5863 150.131H80.7713V168.871H78.3817V145.813C78.3817 144.499 78.5773 143.409 78.9686 142.543C79.3599 141.677 79.863 140.992 80.4778 140.489C81.1207 139.986 81.8054 139.636 82.5321 139.441C83.2587 139.217 83.9574 139.105 84.6282 139.105C84.8238 139.105 85.0055 139.105 85.1732 139.105C85.3409 139.105 85.5086 139.119 85.6763 139.147C85.844 139.147 85.9977 139.175 86.1374 139.231L85.7601 141.285Z" fill="#F2F2F2"/>
<path d="M103.177 161.115C103.177 163.574 102.548 165.559 101.29 167.068C100.033 168.549 98.1321 169.29 95.5887 169.29C93.8559 169.29 92.3886 168.926 91.1868 168.2C90.013 167.445 89.1326 166.453 88.5457 165.223C87.9588 163.994 87.6653 162.624 87.6653 161.115V155.623C87.6653 153.834 87.9727 152.339 88.5876 151.137C89.2025 149.907 90.0968 148.985 91.2707 148.37C92.4445 147.727 93.8559 147.406 95.5049 147.406C97.9923 147.406 99.8928 148.133 101.206 149.586C102.52 151.039 103.177 153.052 103.177 155.623V161.115ZM100.829 155.623C100.829 154.281 100.647 153.163 100.284 152.269C99.9208 151.347 99.3478 150.662 98.5653 150.215C97.8106 149.74 96.8185 149.502 95.5887 149.502C94.359 149.502 93.3249 149.74 92.4865 150.215C91.6759 150.662 91.0611 151.347 90.6418 152.269C90.2226 153.163 90.013 154.281 90.013 155.623V161.534C90.013 162.652 90.2366 163.644 90.6838 164.511C91.1589 165.349 91.8157 166.006 92.6541 166.481C93.4926 166.956 94.4708 167.194 95.5887 167.194C96.7626 167.194 97.7408 166.97 98.5233 166.523C99.3059 166.048 99.8789 165.391 100.242 164.553C100.633 163.686 100.829 162.68 100.829 161.534V155.623Z" fill="#F2F2F2"/>
<path d="M117.783 149.544C117.783 149.544 117.601 149.53 117.238 149.502C116.903 149.474 116.497 149.474 116.022 149.502C115.435 149.53 114.806 149.614 114.136 149.754C113.465 149.866 112.808 150.033 112.165 150.257C111.522 150.452 110.922 150.69 110.363 150.97C109.804 151.221 109.329 151.473 108.937 151.724V168.871H106.548V147.867H108.937V149.251C109.971 148.776 111.033 148.37 112.123 148.035C113.241 147.7 114.555 147.49 116.064 147.406C116.567 147.378 117 147.392 117.364 147.448C117.755 147.504 117.951 147.532 117.951 147.532L117.783 149.544Z" fill="#F2F2F2"/>
<path d="M145.898 154.533C145.898 153.583 145.758 152.8 145.479 152.185C145.199 151.542 144.822 151.039 144.347 150.676C143.872 150.285 143.327 150.019 142.712 149.88C142.125 149.712 141.496 149.628 140.825 149.628C140.294 149.628 139.721 149.684 139.106 149.796C138.519 149.907 137.905 150.089 137.262 150.341C136.647 150.592 136.004 150.928 135.333 151.347C135.501 151.794 135.613 152.283 135.669 152.814C135.752 153.317 135.794 153.862 135.794 154.449V168.871H133.614V154.533C133.614 153.583 133.475 152.8 133.195 152.185C132.916 151.542 132.538 151.039 132.063 150.676C131.616 150.285 131.085 150.019 130.47 149.88C129.855 149.712 129.213 149.628 128.542 149.628C127.899 149.628 127.298 149.684 126.739 149.796C126.208 149.907 125.691 150.075 125.188 150.299C124.685 150.522 124.14 150.802 123.553 151.137V168.871H121.163V147.909H123.553V149.335C124.112 148.971 124.671 148.664 125.23 148.412C125.789 148.133 126.376 147.923 126.991 147.783C127.605 147.616 128.262 147.532 128.961 147.532C129.855 147.532 130.652 147.63 131.351 147.825C132.077 147.993 132.706 148.258 133.237 148.622C133.796 148.957 134.257 149.376 134.621 149.88C135.235 149.404 135.906 148.999 136.633 148.664C137.36 148.3 138.114 148.021 138.897 147.825C139.679 147.63 140.462 147.532 141.244 147.532C142.418 147.532 143.424 147.686 144.263 147.993C145.129 148.272 145.842 148.706 146.401 149.293C146.988 149.88 147.421 150.606 147.701 151.473C147.98 152.339 148.12 153.331 148.12 154.449V168.871H145.898V154.533Z" fill="#F2F2F2"/>
<path d="M165.199 154.198C165.199 153.163 165.017 152.325 164.654 151.682C164.319 151.039 163.844 150.55 163.229 150.215C162.642 149.88 161.957 149.656 161.174 149.544C160.392 149.404 159.581 149.335 158.743 149.335L158.827 147.532C160.532 147.532 161.943 147.7 163.061 148.035C164.179 148.342 165.059 148.859 165.702 149.586C166.373 150.285 166.848 151.235 167.128 152.437C167.407 153.611 167.547 155.064 167.547 156.797V168.871C167.575 168.871 167.421 168.885 167.086 168.912C166.778 168.94 166.359 168.968 165.828 168.996C165.325 169.052 164.766 169.094 164.151 169.122C163.564 169.178 162.977 169.22 162.39 169.248C161.831 169.276 161.342 169.29 160.923 169.29C159.581 169.318 158.324 169.234 157.15 169.038C156.004 168.843 154.998 168.479 154.131 167.948C153.293 167.389 152.622 166.607 152.119 165.601C151.644 164.594 151.406 163.323 151.406 161.786V158.306C151.406 157.132 151.574 156.14 151.91 155.329C152.273 154.519 152.762 153.876 153.377 153.401C153.992 152.898 154.676 152.535 155.431 152.311C156.214 152.087 157.024 151.976 157.863 151.976C158.785 151.976 159.679 152.087 160.546 152.311C161.412 152.507 162.236 152.772 163.019 153.108C163.83 153.443 164.556 153.806 165.199 154.198ZM165.199 156.168C164.472 155.777 163.69 155.413 162.851 155.078C162.013 154.743 161.16 154.477 160.294 154.281C159.428 154.086 158.547 153.988 157.653 153.988C157.29 153.988 156.884 154.044 156.437 154.156C155.99 154.267 155.557 154.477 155.138 154.784C154.718 155.064 154.369 155.497 154.089 156.084C153.838 156.671 153.712 157.44 153.712 158.39V161.492C153.712 162.498 153.81 163.379 154.006 164.133C154.229 164.888 154.593 165.517 155.096 166.02C155.627 166.495 156.353 166.844 157.276 167.068C158.198 167.264 159.358 167.333 160.755 167.278C161.314 167.25 161.817 167.222 162.264 167.194C162.74 167.166 163.159 167.138 163.522 167.11C163.885 167.054 164.193 167.026 164.444 167.026C164.696 166.998 164.878 166.984 164.989 166.984C165.129 166.956 165.199 166.942 165.199 166.942V156.168Z" fill="#F2F2F2"/>
<path d="M198.173 168.871C198.201 168.871 198.047 168.885 197.712 168.912C197.404 168.94 196.985 168.968 196.454 168.996C195.951 169.052 195.392 169.094 194.777 169.122C194.19 169.178 193.617 169.22 193.058 169.248C192.499 169.276 192.024 169.29 191.633 169.29C190.292 169.318 189.034 169.234 187.86 169.038C186.686 168.843 185.666 168.479 184.8 167.948C183.933 167.389 183.248 166.607 182.745 165.601C182.27 164.594 182.033 163.323 182.033 161.786V153.82C182.033 152.646 182.228 151.654 182.62 150.844C183.039 150.033 183.584 149.39 184.255 148.915C184.953 148.412 185.708 148.049 186.518 147.825C187.357 147.602 188.195 147.49 189.034 147.49C190.403 147.49 191.647 147.644 192.765 147.951C193.883 148.258 194.917 148.622 195.867 149.041V139.525H198.173V168.871ZM195.867 151.137C194.749 150.662 193.631 150.271 192.513 149.963C191.423 149.628 190.208 149.46 188.866 149.46C188.503 149.46 188.07 149.516 187.567 149.628C187.063 149.74 186.56 149.949 186.057 150.257C185.582 150.564 185.177 151.025 184.842 151.64C184.506 152.227 184.338 153.01 184.338 153.988V161.492C184.338 162.498 184.45 163.379 184.674 164.133C184.897 164.86 185.275 165.475 185.806 165.978C186.337 166.453 187.049 166.802 187.944 167.026C188.866 167.222 190.026 167.305 191.423 167.278C191.954 167.25 192.444 167.222 192.891 167.194C193.366 167.166 193.785 167.138 194.148 167.11C194.512 167.082 194.819 167.054 195.071 167.026C195.322 166.998 195.518 166.984 195.658 166.984C195.797 166.956 195.867 166.942 195.867 166.942V151.137Z" fill="#F2F2F2"/>
<path d="M204.034 163.253C204.034 164.008 204.146 164.65 204.369 165.181C204.621 165.684 204.956 166.104 205.375 166.439C205.794 166.746 206.284 166.984 206.843 167.152C207.429 167.291 208.058 167.361 208.729 167.361C209.763 167.361 210.783 167.208 211.789 166.9C212.796 166.565 213.816 166.132 214.85 165.601L215.772 167.403C214.738 168.018 213.606 168.507 212.376 168.871C211.147 169.206 210.001 169.374 208.939 169.374C207.877 169.374 206.898 169.276 206.004 169.08C205.11 168.885 204.341 168.549 203.698 168.074C203.056 167.599 202.552 166.97 202.189 166.188C201.854 165.405 201.686 164.427 201.686 163.253V154.659C201.686 153.066 202.021 151.738 202.692 150.676C203.363 149.614 204.285 148.817 205.459 148.286C206.633 147.755 207.96 147.49 209.442 147.49C210.951 147.49 212.251 147.755 213.341 148.286C214.459 148.817 215.311 149.6 215.898 150.634C216.513 151.668 216.82 152.968 216.82 154.533V159.983L204.034 160.654V163.253ZM214.473 154.239C214.473 153.261 214.249 152.423 213.802 151.724C213.355 150.997 212.754 150.438 211.999 150.047C211.244 149.656 210.378 149.46 209.4 149.46C208.31 149.46 207.36 149.67 206.549 150.089C205.739 150.48 205.11 151.067 204.663 151.85C204.243 152.632 204.034 153.583 204.034 154.701V158.348L214.473 157.887V154.239Z" fill="#F2F2F2"/>
<path d="M246.969 161.492C246.969 164.035 246.354 165.992 245.124 167.361C243.923 168.703 242.162 169.374 239.842 169.374C238.976 169.374 238.151 169.234 237.369 168.954C236.586 168.703 235.887 168.34 235.272 167.864C234.686 167.389 234.224 166.872 233.889 166.313V177.758L231.458 176.752V147.909H233.889V149.88C234.504 149.376 235.133 148.957 235.776 148.622C236.446 148.258 237.117 147.993 237.788 147.825C238.487 147.63 239.171 147.518 239.842 147.49C241.407 147.406 242.707 147.644 243.741 148.203C244.803 148.734 245.599 149.53 246.131 150.592C246.689 151.626 246.969 152.884 246.969 154.365V161.492ZM244.579 154.491C244.579 153.541 244.426 152.744 244.118 152.101C243.839 151.431 243.447 150.914 242.944 150.55C242.469 150.159 241.91 149.893 241.267 149.754C240.653 149.586 240.01 149.53 239.339 149.586C238.724 149.642 238.067 149.782 237.369 150.005C236.698 150.229 236.055 150.536 235.44 150.928C234.825 151.319 234.308 151.808 233.889 152.395V161.576C233.889 162.47 234.043 163.267 234.35 163.966C234.658 164.664 235.077 165.251 235.608 165.726C236.139 166.201 236.754 166.565 237.452 166.816C238.151 167.068 238.906 167.194 239.716 167.194C240.778 167.194 241.659 166.998 242.357 166.607C243.084 166.215 243.629 165.629 243.992 164.846C244.384 164.063 244.579 163.071 244.579 161.869V154.491Z" fill="#F2F2F2"/>
<path d="M252.671 163.253C252.671 164.008 252.783 164.65 253.006 165.181C253.258 165.684 253.593 166.104 254.012 166.439C254.432 166.746 254.921 166.984 255.48 167.152C256.067 167.291 256.695 167.361 257.366 167.361C258.4 167.361 259.42 167.208 260.427 166.9C261.433 166.565 262.453 166.132 263.487 165.601L264.409 167.403C263.375 168.018 262.243 168.507 261.013 168.871C259.784 169.206 258.638 169.374 257.576 169.374C256.514 169.374 255.536 169.276 254.641 169.08C253.747 168.885 252.978 168.549 252.335 168.074C251.693 167.599 251.19 166.97 250.826 166.188C250.491 165.405 250.323 164.427 250.323 163.253V154.659C250.323 153.066 250.659 151.738 251.329 150.676C252 149.614 252.922 148.817 254.096 148.286C255.27 147.755 256.598 147.49 258.079 147.49C259.588 147.49 260.888 147.755 261.978 148.286C263.096 148.817 263.948 149.6 264.535 150.634C265.15 151.668 265.457 152.968 265.457 154.533V159.983L252.671 160.654V163.253ZM263.11 154.239C263.11 153.261 262.886 152.423 262.439 151.724C261.992 150.997 261.391 150.438 260.636 150.047C259.882 149.656 259.015 149.46 258.037 149.46C256.947 149.46 255.997 149.67 255.186 150.089C254.376 150.48 253.747 151.067 253.3 151.85C252.88 152.632 252.671 153.583 252.671 154.701V158.348L263.11 157.887V154.239Z" fill="#F2F2F2"/>
<path d="M280.046 150.466C279.683 150.215 279.264 150.019 278.788 149.88C278.341 149.712 277.866 149.586 277.363 149.502C276.888 149.418 276.413 149.376 275.938 149.376C275.379 149.376 274.792 149.446 274.177 149.586C273.59 149.698 273.045 149.893 272.542 150.173C272.039 150.425 271.634 150.76 271.326 151.179C271.019 151.598 270.865 152.101 270.865 152.688C270.865 153.387 271.075 153.974 271.494 154.449C271.941 154.924 272.514 155.357 273.213 155.749C273.911 156.112 274.68 156.461 275.518 156.797C276.357 157.104 277.195 157.454 278.034 157.845C278.9 158.208 279.683 158.641 280.381 159.144C281.08 159.648 281.639 160.262 282.058 160.989C282.506 161.688 282.729 162.554 282.729 163.588C282.729 164.594 282.52 165.475 282.1 166.229C281.681 166.984 281.122 167.613 280.423 168.116C279.725 168.619 278.942 168.996 278.076 169.248C277.237 169.499 276.371 169.625 275.477 169.625C273.995 169.625 272.556 169.304 271.158 168.661C269.761 168.018 268.573 167.138 267.595 166.02L268.895 164.636C269.537 165.251 270.194 165.768 270.865 166.188C271.536 166.607 272.248 166.928 273.003 167.152C273.786 167.347 274.61 167.445 275.477 167.445C276.008 167.445 276.567 167.375 277.153 167.236C277.74 167.096 278.285 166.872 278.788 166.565C279.319 166.229 279.739 165.824 280.046 165.349C280.382 164.874 280.549 164.301 280.549 163.63C280.549 162.876 280.326 162.233 279.878 161.702C279.459 161.143 278.9 160.668 278.202 160.276C277.503 159.857 276.72 159.48 275.854 159.144C275.015 158.809 274.163 158.46 273.297 158.096C272.458 157.733 271.689 157.314 270.991 156.839C270.292 156.364 269.719 155.805 269.272 155.162C268.853 154.491 268.643 153.695 268.643 152.772C268.643 151.878 268.839 151.109 269.23 150.466C269.621 149.796 270.138 149.237 270.781 148.79C271.452 148.314 272.193 147.965 273.003 147.741C273.814 147.518 274.638 147.406 275.477 147.406C276.035 147.406 276.608 147.448 277.195 147.532C277.782 147.588 278.397 147.727 279.04 147.951C279.683 148.147 280.34 148.454 281.01 148.873L280.046 150.466Z" fill="#F2F2F2"/>
<path d="M299.145 166.271C298.837 166.83 298.376 167.347 297.761 167.823C297.147 168.298 296.448 168.661 295.665 168.912C294.883 169.192 294.072 169.332 293.234 169.332C291.669 169.332 290.341 169.038 289.251 168.451C288.189 167.836 287.379 166.942 286.82 165.768C286.289 164.594 286.023 163.155 286.023 161.45V154.365C286.023 152.856 286.303 151.584 286.862 150.55C287.421 149.488 288.231 148.692 289.293 148.161C290.355 147.602 291.655 147.364 293.192 147.448C293.863 147.476 294.533 147.588 295.204 147.783C295.903 147.951 296.574 148.217 297.216 148.58C297.887 148.915 298.53 149.335 299.145 149.838V147.909H301.535V177.758L299.145 176.794V166.271ZM299.145 152.353C298.865 151.906 298.502 151.514 298.055 151.179C297.636 150.844 297.175 150.564 296.671 150.341C296.168 150.117 295.651 149.935 295.12 149.796C294.617 149.656 294.142 149.572 293.695 149.544C293.052 149.488 292.409 149.544 291.767 149.712C291.152 149.852 290.579 150.117 290.048 150.508C289.545 150.9 289.139 151.417 288.832 152.059C288.524 152.702 288.371 153.499 288.371 154.449V161.828C288.371 162.973 288.566 163.952 288.958 164.762C289.349 165.545 289.908 166.146 290.635 166.565C291.389 166.956 292.298 167.152 293.36 167.152C294.17 167.152 294.925 167.04 295.623 166.816C296.322 166.565 296.937 166.201 297.468 165.726C297.999 165.251 298.404 164.664 298.684 163.966C298.991 163.267 299.145 162.47 299.145 161.576V152.353Z" fill="#F2F2F2"/>
<path d="M318.228 166.858C317.781 167.389 317.236 167.836 316.593 168.2C315.95 168.563 315.265 168.829 314.539 168.996C313.812 169.192 313.099 169.29 312.401 169.29C311.478 169.29 310.626 169.192 309.843 168.996C309.089 168.829 308.404 168.563 307.789 168.2C307.202 167.836 306.699 167.375 306.28 166.816C305.889 166.257 305.581 165.601 305.358 164.846C305.162 164.091 305.064 163.239 305.064 162.289V147.867H307.454V161.702C307.454 162.987 307.649 164.021 308.041 164.804C308.432 165.587 309.005 166.16 309.76 166.523C310.514 166.858 311.423 167.026 312.485 167.026C313.323 167.026 314.092 166.886 314.79 166.607C315.489 166.327 316.09 165.936 316.593 165.433C317.124 164.93 317.529 164.357 317.809 163.714C318.088 163.071 318.228 162.373 318.228 161.618V147.867H320.576V168.871H318.228V166.858Z" fill="#F2F2F2"/>
<path d="M323.982 168.871V147.867H326.371V168.871H323.982ZM325.197 139.105C325.589 139.105 325.924 139.245 326.204 139.525C326.483 139.804 326.623 140.139 326.623 140.531C326.623 140.894 326.483 141.215 326.204 141.495C325.924 141.774 325.589 141.914 325.197 141.914C324.834 141.914 324.499 141.774 324.191 141.495C323.912 141.215 323.772 140.894 323.772 140.531C323.772 140.139 323.912 139.804 324.191 139.525C324.499 139.245 324.834 139.105 325.197 139.105Z" fill="#F2F2F2"/>
<path d="M341.907 150.466C341.544 150.215 341.124 150.019 340.649 149.88C340.202 149.712 339.727 149.586 339.224 149.502C338.749 149.418 338.274 149.376 337.798 149.376C337.24 149.376 336.653 149.446 336.038 149.586C335.451 149.698 334.906 149.893 334.403 150.173C333.9 150.425 333.494 150.76 333.187 151.179C332.88 151.598 332.726 152.101 332.726 152.688C332.726 153.387 332.935 153.974 333.355 154.449C333.802 154.924 334.375 155.357 335.073 155.749C335.772 156.112 336.541 156.461 337.379 156.797C338.218 157.104 339.056 157.454 339.895 157.845C340.761 158.208 341.544 158.641 342.242 159.144C342.941 159.648 343.5 160.262 343.919 160.989C344.366 161.688 344.59 162.554 344.59 163.588C344.59 164.594 344.38 165.475 343.961 166.229C343.542 166.984 342.983 167.613 342.284 168.116C341.586 168.619 340.803 168.996 339.937 169.248C339.098 169.499 338.232 169.625 337.337 169.625C335.856 169.625 334.417 169.304 333.019 168.661C331.622 168.018 330.434 167.138 329.456 166.02L330.755 164.636C331.398 165.251 332.055 165.768 332.726 166.188C333.397 166.607 334.109 166.928 334.864 167.152C335.646 167.347 336.471 167.445 337.337 167.445C337.868 167.445 338.427 167.375 339.014 167.236C339.601 167.096 340.146 166.872 340.649 166.565C341.18 166.229 341.599 165.824 341.907 165.349C342.242 164.874 342.41 164.301 342.41 163.63C342.41 162.876 342.186 162.233 341.739 161.702C341.32 161.143 340.761 160.668 340.062 160.276C339.364 159.857 338.581 159.48 337.715 159.144C336.876 158.809 336.024 158.46 335.157 158.096C334.319 157.733 333.55 157.314 332.852 156.839C332.153 156.364 331.58 155.805 331.133 155.162C330.714 154.491 330.504 153.695 330.504 152.772C330.504 151.878 330.7 151.109 331.091 150.466C331.482 149.796 331.999 149.237 332.642 148.79C333.313 148.314 334.053 147.965 334.864 147.741C335.674 147.518 336.499 147.406 337.337 147.406C337.896 147.406 338.469 147.448 339.056 147.532C339.643 147.588 340.258 147.727 340.901 147.951C341.544 148.147 342.2 148.454 342.871 148.873L341.907 150.466Z" fill="#F2F2F2"/>
<path d="M361.631 154.198C361.631 153.163 361.449 152.325 361.086 151.682C360.75 151.039 360.275 150.55 359.66 150.215C359.073 149.88 358.389 149.656 357.606 149.544C356.823 149.404 356.013 149.335 355.175 149.335L355.258 147.532C356.963 147.532 358.375 147.7 359.493 148.035C360.611 148.342 361.491 148.859 362.134 149.586C362.804 150.285 363.28 151.235 363.559 152.437C363.839 153.611 363.978 155.064 363.978 156.797V168.871C364.006 168.871 363.853 168.885 363.517 168.912C363.21 168.94 362.79 168.968 362.259 168.996C361.756 169.052 361.197 169.094 360.583 169.122C359.996 169.178 359.409 169.22 358.822 169.248C358.263 169.276 357.774 169.29 357.354 169.29C356.013 169.318 354.755 169.234 353.581 169.038C352.436 168.843 351.429 168.479 350.563 167.948C349.725 167.389 349.054 166.607 348.551 165.601C348.076 164.594 347.838 163.323 347.838 161.786V158.306C347.838 157.132 348.006 156.14 348.341 155.329C348.704 154.519 349.194 153.876 349.808 153.401C350.423 152.898 351.108 152.535 351.863 152.311C352.645 152.087 353.456 151.976 354.294 151.976C355.216 151.976 356.111 152.087 356.977 152.311C357.844 152.507 358.668 152.772 359.451 153.108C360.261 153.443 360.988 153.806 361.631 154.198ZM361.631 156.168C360.904 155.777 360.121 155.413 359.283 155.078C358.444 154.743 357.592 154.477 356.726 154.281C355.859 154.086 354.979 153.988 354.085 153.988C353.721 153.988 353.316 154.044 352.869 154.156C352.422 154.267 351.988 154.477 351.569 154.784C351.15 155.064 350.801 155.497 350.521 156.084C350.27 156.671 350.144 157.44 350.144 158.39V161.492C350.144 162.498 350.242 163.379 350.437 164.133C350.661 164.888 351.024 165.517 351.527 166.02C352.058 166.495 352.785 166.844 353.707 167.068C354.63 167.264 355.789 167.333 357.187 167.278C357.746 167.25 358.249 167.222 358.696 167.194C359.171 167.166 359.59 167.138 359.954 167.11C360.317 167.054 360.625 167.026 360.876 167.026C361.128 166.998 361.309 166.984 361.421 166.984C361.561 166.956 361.631 166.942 361.631 166.942V156.168Z" fill="#F2F2F2"/>
<path d="M90.9202 60.8537V62.0983C90.8329 65.7665 90.4399 69.5658 89.7411 73.496C89.0861 77.4263 88.1472 81.3566 86.9245 85.2868C85.7017 89.2171 84.2388 93.1037 82.5357 96.9466C80.8325 100.79 78.9111 104.458 76.7713 107.951C74.6751 111.489 72.4043 114.786 69.9588 117.843C67.5133 120.943 64.9368 123.672 62.2293 126.031L52.4691 120.397C53.9975 117.821 55.3731 115.004 56.5959 111.947C57.8623 108.934 58.9977 105.768 60.0021 102.449C61.0065 99.1301 61.8581 95.7239 62.5568 92.2303C63.2992 88.7367 63.9105 85.265 64.3909 81.8151C64.8713 78.3652 65.2206 74.9808 65.439 71.6619C65.701 68.2993 65.832 65.1115 65.832 62.0983C65.832 59.7401 65.8102 57.0762 65.7665 54.1067C65.7665 51.0935 65.5918 48.0366 65.2425 44.9361C64.9368 41.8355 64.4128 38.8223 63.6704 35.8965C62.928 32.9269 61.8144 30.2849 60.3296 27.9704C58.8885 25.6559 57.0107 23.8 54.6963 22.4025C52.4254 21.0051 49.5869 20.3064 46.1807 20.3064C43.1675 20.3064 40.5691 20.8304 38.3856 21.8785C36.2458 22.8829 34.4117 24.2585 32.8833 26.0053C31.3985 27.7084 30.1976 29.6954 29.2805 31.9662C28.4071 34.237 27.7084 36.6388 27.1844 39.1717C26.704 41.6609 26.3765 44.1937 26.2018 46.7702C26.0708 49.303 26.0053 51.7049 26.0053 53.9757V72.2515H54.2377V83.0597H26.0053V105.986H0V58.037C0 51.1808 1.09174 44.8051 3.27522 38.9097C5.45871 33.0143 8.53742 27.9049 12.5114 23.5816C16.529 19.2147 21.3326 15.8084 26.9223 13.3629C32.5557 10.8737 38.8223 9.62916 45.7221 9.62916C50.3948 9.62916 54.7618 10.306 58.823 11.6598C62.928 12.9699 66.6617 14.804 70.0243 17.1622C73.3869 19.4767 76.3782 22.2497 78.9984 25.4812C81.6623 28.6691 83.8676 32.1627 85.6144 35.962C87.4048 39.7612 88.7586 43.7788 89.6757 48.0148C90.5927 52.2507 91.0076 56.5304 90.9202 60.8537Z" fill="#F2F2F2"/>
<path d="M124 70.0898C126.708 70.7012 129.415 71.1815 132.123 71.5309C134.83 71.8803 137.559 72.0549 140.311 72.0549C143.193 72.0549 145.857 71.7929 148.302 71.2689C150.791 70.7012 152.931 69.7841 154.722 68.5177C156.556 67.2076 157.997 65.4827 159.045 63.3428C160.093 61.203 160.617 58.5392 160.617 55.3513C160.617 52.7748 160.268 50.4166 159.569 48.2768C158.87 46.137 157.822 44.3029 156.425 42.7744C155.071 41.246 153.39 40.0669 151.381 39.2372C149.372 38.3638 147.036 37.9271 144.372 37.9271C141.883 37.9271 139.634 38.3856 137.625 39.3027C135.66 40.2198 133.913 41.4643 132.385 43.0364C130.9 44.5649 129.612 46.3553 128.52 48.4078C127.472 50.4603 126.598 52.6001 125.9 54.8273C125.201 57.0544 124.699 59.3034 124.393 61.5742C124.087 63.845 123.934 65.9849 123.934 67.9937C123.934 68.343 123.934 68.6924 123.934 69.0417C123.934 69.3911 123.956 69.7404 124 70.0898ZM178.565 55.1548C178.565 58.2553 178.063 61.0284 177.059 63.4739C176.054 65.8757 174.679 67.9937 172.932 69.8278C171.229 71.6619 169.242 73.2122 166.971 74.4786C164.7 75.745 162.276 76.7931 159.7 77.6228C157.123 78.4089 154.46 78.9766 151.708 79.3259C149.001 79.6753 146.359 79.85 143.782 79.85C140.507 79.85 137.276 79.6316 134.088 79.1949C130.9 78.7146 127.756 77.9722 124.655 76.9678C125.135 79.85 125.9 82.6012 126.948 85.2213C127.996 87.7979 129.393 90.0687 131.14 92.0338C132.887 93.9553 135.027 95.4837 137.559 96.6191C140.136 97.7545 143.171 98.3222 146.665 98.3222C148.979 98.3222 151.184 97.9729 153.281 97.2742C155.377 96.5755 157.298 95.5929 159.045 94.3265C160.792 93.0601 162.32 91.5534 163.63 89.8067C164.984 88.0599 166.076 86.1166 166.905 83.9768L176.469 87.514C175.028 90.9639 173.041 93.9553 170.508 96.4881C168.019 98.9773 165.18 101.052 161.993 102.711C158.848 104.327 155.486 105.528 151.905 106.314C148.368 107.1 144.852 107.493 141.359 107.493C135.594 107.493 130.267 106.532 125.376 104.611C120.485 102.646 116.27 99.9162 112.733 96.4226C109.196 92.929 106.423 88.7586 104.414 83.9113C102.405 79.0639 101.401 73.7581 101.401 67.9937C101.401 62.2293 102.405 56.9234 104.414 52.0761C106.423 47.2287 109.196 43.0583 112.733 39.5647C116.27 36.0711 120.485 33.3636 125.376 31.4422C130.267 29.477 135.594 28.4945 141.359 28.4945C144.154 28.4945 147.014 28.691 149.94 29.084C152.866 29.477 155.704 30.1102 158.455 30.9836C161.207 31.8133 163.805 32.9051 166.25 34.2589C168.696 35.6126 170.814 37.2939 172.604 39.3027C174.438 41.2678 175.88 43.5605 176.928 46.1807C178.019 48.8008 178.565 51.7922 178.565 55.1548Z" fill="#F2F2F2"/>
<path d="M256.712 37.01L244.266 57.644C243.742 55.8972 243.065 53.932 242.236 51.7485C241.406 49.5651 240.38 47.5344 239.157 45.6566C237.934 43.7352 236.471 42.1412 234.768 40.8748C233.065 39.5647 231.1 38.9097 228.873 38.9097C226.82 38.9097 225.03 39.4337 223.501 40.4818C222.017 41.5298 220.75 42.9054 219.702 44.6086C218.654 46.268 217.781 48.1676 217.082 50.3074C216.427 52.4036 215.903 54.5434 215.51 56.7269C215.16 58.8667 214.92 60.941 214.789 62.9498C214.658 64.9149 214.593 66.6181 214.593 68.0592V105.986H192.387V30.3286H200.902L209.876 47.9493C211.099 45.1108 212.497 42.5124 214.069 40.1543C215.641 37.7524 217.453 35.6999 219.506 33.9968C221.558 32.25 223.873 30.8963 226.449 29.9356C229.069 28.9748 232.017 28.4945 235.292 28.4945C236.995 28.4945 238.895 28.6473 240.991 28.953C243.087 29.215 245.14 29.6954 247.148 30.3941C249.157 31.0491 251.013 31.9225 252.716 33.0143C254.419 34.106 255.751 35.4379 256.712 37.01Z" fill="#F2F2F2"/>
<path d="M289.268 12.0528C289.268 13.7123 288.94 15.2844 288.285 16.7691C287.674 18.2539 286.822 19.5422 285.731 20.6339C284.639 21.7257 283.351 22.599 281.866 23.2541C280.381 23.8655 278.809 24.1712 277.15 24.1712C275.49 24.1712 273.918 23.8655 272.433 23.2541C270.992 22.599 269.726 21.7257 268.634 20.6339C267.542 19.5422 266.669 18.2539 266.014 16.7691C265.402 15.2844 265.097 13.7123 265.097 12.0528C265.097 10.3934 265.402 8.84311 266.014 7.40201C266.669 5.91724 267.542 4.62898 268.634 3.53724C269.726 2.4455 270.992 1.59394 272.433 0.982567C273.918 0.327522 275.49 0 277.15 0C278.809 0 280.381 0.327522 281.866 0.982567C283.351 1.59394 284.639 2.4455 285.731 3.53724C286.822 4.62898 287.674 5.91724 288.285 7.40201C288.94 8.84311 289.268 10.3934 289.268 12.0528ZM288.285 105.986H266.079V30.3941H288.285V105.986Z" fill="#F2F2F2"/>
<path d="M372 81.8151C372 85.134 371.52 88.0817 370.559 90.6582C369.598 93.2347 368.288 95.4837 366.629 97.4052C364.969 99.283 363.004 100.877 360.733 102.187C358.462 103.453 356.017 104.48 353.397 105.266C350.82 106.052 348.113 106.619 345.274 106.969C342.436 107.318 339.619 107.493 336.824 107.493C333.069 107.493 329.75 107.253 326.867 106.772C323.985 106.292 321.234 105.528 318.614 104.48C315.994 103.388 313.373 101.99 310.753 100.287C308.177 98.5843 305.295 96.5099 302.107 94.0645L315.011 83.5182C316.19 85.7454 317.74 87.776 319.662 89.6101C321.627 91.4006 323.658 92.9509 325.754 94.261C327.85 95.5711 329.881 96.5755 331.846 97.2742C333.811 97.9729 335.405 98.3222 336.628 98.3222C337.632 98.3222 338.767 98.3004 340.034 98.2567C341.3 98.1694 342.589 98.0384 343.899 97.8637C345.209 97.6454 346.497 97.3397 347.763 96.9466C349.03 96.5536 350.143 96.0296 351.104 95.3745C352.108 94.6758 352.895 93.8243 353.462 92.8199C354.074 91.7718 354.379 90.5272 354.379 89.0861C354.379 87.6013 353.986 86.3131 353.2 85.2213C352.458 84.0859 351.475 83.1034 350.253 82.2736C349.03 81.4439 347.632 80.7452 346.06 80.1775C344.488 79.6098 342.894 79.1076 341.278 78.6709C339.706 78.2342 338.178 77.863 336.693 77.5573C335.208 77.208 333.92 76.8804 332.828 76.5748C330.82 76.007 328.702 75.4393 326.474 74.8716C324.247 74.2603 322.042 73.5834 319.858 72.841C317.675 72.0549 315.579 71.1379 313.57 70.0898C311.605 69.0417 309.858 67.7971 308.33 66.356C306.845 64.8713 305.644 63.1463 304.727 61.1812C303.854 59.1724 303.417 56.8361 303.417 54.1722C303.417 49.2812 304.378 45.1981 306.299 41.9229C308.264 38.604 310.841 35.962 314.029 33.9968C317.216 31.988 320.841 30.5688 324.902 29.739C328.964 28.9093 333.09 28.4945 337.283 28.4945C340.165 28.4945 343.2 28.8001 346.388 29.4115C349.576 29.9792 352.676 30.8526 355.689 32.0317C358.703 33.1671 361.519 34.5645 364.139 36.224C366.76 37.8834 368.943 39.7831 370.69 41.9229L357.786 52.5346C356.825 49.9144 355.558 47.6654 353.986 45.7876C352.458 43.9098 350.777 42.3814 348.942 41.2023C347.152 39.9796 345.296 39.0843 343.375 38.5166C341.497 37.9489 339.75 37.6651 338.134 37.6651C336.562 37.6651 334.793 37.7306 332.828 37.8616C330.863 37.9926 329.007 38.3638 327.26 38.9752C325.557 39.5865 324.094 40.5254 322.872 41.7919C321.693 43.0146 321.103 44.7177 321.103 46.9012C321.103 48.4733 321.452 49.8271 322.151 50.9625C322.893 52.0542 323.854 53.015 325.033 53.8447C326.212 54.6307 327.544 55.3076 329.029 55.8753C330.557 56.3994 332.108 56.8797 333.68 57.3164C335.252 57.7095 336.78 58.0588 338.265 58.3645C339.75 58.6702 341.082 58.9977 342.261 59.3471C344.27 59.9148 346.388 60.5043 348.615 61.1157C350.886 61.6834 353.113 62.3603 355.296 63.1463C357.48 63.8887 359.576 64.7839 361.585 65.832C363.637 66.8364 365.428 68.081 366.956 69.5658C368.485 71.0505 369.707 72.7973 370.624 74.8061C371.541 76.7713 372 79.1076 372 81.8151Z" fill="#F2F2F2"/>
</svg>
